<?xml version="1.0" encoding="UTF-8"?>
<svg xmlns:xhtml="http://www.w3.org/1999/xhtml" xmlns:xlink="http://www.w3.org/1999/xlink" xmlns="http://www.w3.org/2000/svg" id="mermaid-svg-25" width="100%" style="max-width: 100%;" viewBox="-188.8 -148.8 3249.6000000000004 3053.6000000000004" height="100%"><g><rect x="2722" y="2690" fill="#eaeaea" stroke="#666" width="150" height="65" name="S3" rx="3" ry="3" class="actor actor-bottom"/><text x="2797" y="2722.5" dominant-baseline="central" alignment-baseline="central" class="actor actor-box" style="text-anchor: middle; font-size: 16px; font-weight: 400;"><tspan x="2797" dy="0">S3</tspan></text></g><g><rect x="2478" y="2690" fill="#eaeaea" stroke="#666" width="170" height="65" name="Worker" rx="3" ry="3" class="actor actor-bottom"/><text x="2563" y="2722.5" dominant-baseline="central" alignment-baseline="central" class="actor actor-box" style="text-anchor: middle; font-size: 16px; font-weight: 400;"><tspan x="2563" dy="0">Background Worker</tspan></text></g><g><rect x="2278" y="2690" fill="#eaeaea" stroke="#666" width="150" height="65" name="Queue" rx="3" ry="3" class="actor actor-bottom"/><text x="2353" y="2722.5" dominant-baseline="central" alignment-baseline="central" class="actor actor-box" style="text-anchor: middle; font-size: 16px; font-weight: 400;"><tspan x="2353" dy="0">RabbitMQ</tspan></text></g><g><rect x="2078" y="2690" fill="#eaeaea" stroke="#666" width="150" height="65" name="Redis" rx="3" ry="3" class="actor actor-bottom"/><text x="2153" y="2722.5" dominant-baseline="central" alignment-baseline="central" class="actor actor-box" style="text-anchor: middle; font-size: 16px; font-weight: 400;"><tspan x="2153" dy="0">Redis</tspan></text></g><g><rect x="1878" y="2690" fill="#eaeaea" stroke="#666" width="150" height="65" name="DB" rx="3" ry="3" class="actor actor-bottom"/><text x="1953" y="2722.5" dominant-baseline="central" alignment-baseline="central" class="actor actor-box" style="text-anchor: middle; font-size: 16px; font-weight: 400;"><tspan x="1953" dy="0">PostgreSQL</tspan></text></g><g><rect x="1663" y="2690" fill="#eaeaea" stroke="#666" width="150" height="65" name="Audit" rx="3" ry="3" class="actor actor-bottom"/><text x="1738" y="2722.5" dominant-baseline="central" alignment-baseline="central" class="actor actor-box" style="text-anchor: middle; font-size: 16px; font-weight: 400;"><tspan x="1738" dy="0">Audit Service</tspan></text></g><g><rect x="1460" y="2690" fill="#eaeaea" stroke="#666" width="153" height="65" name="Webhook" rx="3" ry="3" class="actor actor-bottom"/><text x="1536.5" y="2722.5" dominant-baseline="central" alignment-baseline="central" class="actor actor-box" style="text-anchor: middle; font-size: 16px; font-weight: 400;"><tspan x="1536.5" dy="0">Webhook Service</tspan></text></g><g><rect x="1260" y="2690" fill="#eaeaea" stroke="#666" width="150" height="65" name="Expiry" rx="3" ry="3" class="actor actor-bottom"/><text x="1335" y="2722.5" dominant-baseline="central" alignment-baseline="central" class="actor actor-box" style="text-anchor: middle; font-size: 16px; font-weight: 400;"><tspan x="1335" dy="0">Expiry Service</tspan></text></g><g><rect x="1054" y="2690" fill="#eaeaea" stroke="#666" width="156" height="65" name="Institution" rx="3" ry="3" class="actor actor-bottom"/><text x="1132" y="2722.5" dominant-baseline="central" alignment-baseline="central" class="actor actor-box" style="text-anchor: middle; font-size: 16px; font-weight: 400;"><tspan x="1132" dy="0">Institution Service</tspan></text></g><g><rect x="845" y="2690" fill="#eaeaea" stroke="#666" width="159" height="65" name="Document" rx="3" ry="3" class="actor actor-bottom"/><text x="924.5" y="2722.5" dominant-baseline="central" alignment-baseline="central" class="actor actor-box" style="text-anchor: middle; font-size: 16px; font-weight: 400;"><tspan x="924.5" dy="0">Document Service</tspan></text></g><g><rect x="645" y="2690" fill="#eaeaea" stroke="#666" width="150" height="65" name="Auth" rx="3" ry="3" class="actor actor-bottom"/><text x="720" y="2722.5" dominant-baseline="central" alignment-baseline="central" class="actor actor-box" style="text-anchor: middle; font-size: 16px; font-weight: 400;"><tspan x="720" dy="0">Auth Service</tspan></text></g><g><rect x="354" y="2690" fill="#eaeaea" stroke="#666" width="150" height="65" name="Gateway" rx="3" ry="3" class="actor actor-bottom"/><text x="429" y="2722.5" dominant-baseline="central" alignment-baseline="central" class="actor actor-box" style="text-anchor: middle; font-size: 16px; font-weight: 400;"><tspan x="429" dy="0">API Gateway</tspan></text></g><g><rect x="0" y="2690" fill="#eaeaea" stroke="#666" width="150" height="65" name="Client" rx="3" ry="3" class="actor actor-bottom"/><text x="75" y="2722.5" dominant-baseline="central" alignment-baseline="central" class="actor actor-box" style="text-anchor: middle; font-size: 16px; font-weight: 400;"><tspan x="75" dy="0">Client</tspan></text></g><g><line id="actor106" x1="2797" y1="65" x2="2797" y2="2690" class="actor-line 200" stroke-width="0.5px" stroke="#999" name="S3"/><g id="root-106"><rect x="2722" y="0" fill="#eaeaea" stroke="#666" width="150" height="65" name="S3" rx="3" ry="3" class="actor actor-top"/><text x="2797" y="32.5" dominant-baseline="central" alignment-baseline="central" class="actor actor-box" style="text-anchor: middle; font-size: 16px; font-weight: 400;"><tspan x="2797" dy="0">S3</tspan></text></g></g><g><line id="actor105" x1="2563" y1="65" x2="2563" y2="2690" class="actor-line 200" stroke-width="0.5px" stroke="#999" name="Worker"/><g id="root-105"><rect x="2478" y="0" fill="#eaeaea" stroke="#666" width="170" height="65" name="Worker" rx="3" ry="3" class="actor actor-top"/><text x="2563" y="32.5" dominant-baseline="central" alignment-baseline="central" class="actor actor-box" style="text-anchor: middle; font-size: 16px; font-weight: 400;"><tspan x="2563" dy="0">Background Worker</tspan></text></g></g><g><line id="actor104" x1="2353" y1="65" x2="2353" y2="2690" class="actor-line 200" stroke-width="0.5px" stroke="#999" name="Queue"/><g id="root-104"><rect x="2278" y="0" fill="#eaeaea" stroke="#666" width="150" height="65" name="Queue" rx="3" ry="3" class="actor actor-top"/><text x="2353" y="32.5" dominant-baseline="central" alignment-baseline="central" class="actor actor-box" style="text-anchor: middle; font-size: 16px; font-weight: 400;"><tspan x="2353" dy="0">RabbitMQ</tspan></text></g></g><g><line id="actor103" x1="2153" y1="65" x2="2153" y2="2690" class="actor-line 200" stroke-width="0.5px" stroke="#999" name="Redis"/><g id="root-103"><rect x="2078" y="0" fill="#eaeaea" stroke="#666" width="150" height="65" name="Redis" rx="3" ry="3" class="actor actor-top"/><text x="2153" y="32.5" dominant-baseline="central" alignment-baseline="central" class="actor actor-box" style="text-anchor: middle; font-size: 16px; font-weight: 400;"><tspan x="2153" dy="0">Redis</tspan></text></g></g><g><line id="actor102" x1="1953" y1="65" x2="1953" y2="2690" class="actor-line 200" stroke-width="0.5px" stroke="#999" name="DB"/><g id="root-102"><rect x="1878" y="0" fill="#eaeaea" stroke="#666" width="150" height="65" name="DB" rx="3" ry="3" class="actor actor-top"/><text x="1953" y="32.5" dominant-baseline="central" alignment-baseline="central" class="actor actor-box" style="text-anchor: middle; font-size: 16px; font-weight: 400;"><tspan x="1953" dy="0">PostgreSQL</tspan></text></g></g><g><line id="actor101" x1="1738" y1="65" x2="1738" y2="2690" class="actor-line 200" stroke-width="0.5px" stroke="#999" name="Audit"/><g id="root-101"><rect x="1663" y="0" fill="#eaeaea" stroke="#666" width="150" height="65" name="Audit" rx="3" ry="3" class="actor actor-top"/><text x="1738" y="32.5" dominant-baseline="central" alignment-baseline="central" class="actor actor-box" style="text-anchor: middle; font-size: 16px; font-weight: 400;"><tspan x="1738" dy="0">Audit Service</tspan></text></g></g><g><line id="actor100" x1="1536.5" y1="65" x2="1536.5" y2="2690" class="actor-line 200" stroke-width="0.5px" stroke="#999" name="Webhook"/><g id="root-100"><rect x="1460" y="0" fill="#eaeaea" stroke="#666" width="153" height="65" name="Webhook" rx="3" ry="3" class="actor actor-top"/><text x="1536.5" y="32.5" dominant-baseline="central" alignment-baseline="central" class="actor actor-box" style="text-anchor: middle; font-size: 16px; font-weight: 400;"><tspan x="1536.5" dy="0">Webhook Service</tspan></text></g></g><g><line id="actor99" x1="1335" y1="65" x2="1335" y2="2690" class="actor-line 200" stroke-width="0.5px" stroke="#999" name="Expiry"/><g id="root-99"><rect x="1260" y="0" fill="#eaeaea" stroke="#666" width="150" height="65" name="Expiry" rx="3" ry="3" class="actor actor-top"/><text x="1335" y="32.5" dominant-baseline="central" alignment-baseline="central" class="actor actor-box" style="text-anchor: middle; font-size: 16px; font-weight: 400;"><tspan x="1335" dy="0">Expiry Service</tspan></text></g></g><g><line id="actor98" x1="1132" y1="65" x2="1132" y2="2690" class="actor-line 200" stroke-width="0.5px" stroke="#999" name="Institution"/><g id="root-98"><rect x="1054" y="0" fill="#eaeaea" stroke="#666" width="156" height="65" name="Institution" rx="3" ry="3" class="actor actor-top"/><text x="1132" y="32.5" dominant-baseline="central" alignment-baseline="central" class="actor actor-box" style="text-anchor: middle; font-size: 16px; font-weight: 400;"><tspan x="1132" dy="0">Institution Service</tspan></text></g></g><g><line id="actor97" x1="924.5" y1="65" x2="924.5" y2="2690" class="actor-line 200" stroke-width="0.5px" stroke="#999" name="Document"/><g id="root-97"><rect x="845" y="0" fill="#eaeaea" stroke="#666" width="159" height="65" name="Document" rx="3" ry="3" class="actor actor-top"/><text x="924.5" y="32.5" dominant-baseline="central" alignment-baseline="central" class="actor actor-box" style="text-anchor: middle; font-size: 16px; font-weight: 400;"><tspan x="924.5" dy="0">Document Service</tspan></text></g></g><g><line id="actor96" x1="720" y1="65" x2="720" y2="2690" class="actor-line 200" stroke-width="0.5px" stroke="#999" name="Auth"/><g id="root-96"><rect x="645" y="0" fill="#eaeaea" stroke="#666" width="150" height="65" name="Auth" rx="3" ry="3" class="actor actor-top"/><text x="720" y="32.5" dominant-baseline="central" alignment-baseline="central" class="actor actor-box" style="text-anchor: middle; font-size: 16px; font-weight: 400;"><tspan x="720" dy="0">Auth Service</tspan></text></g></g><g><line id="actor95" x1="429" y1="65" x2="429" y2="2690" class="actor-line 200" stroke-width="0.5px" stroke="#999" name="Gateway"/><g id="root-95"><rect x="354" y="0" fill="#eaeaea" stroke="#666" width="150" height="65" name="Gateway" rx="3" ry="3" class="actor actor-top"/><text x="429" y="32.5" dominant-baseline="central" alignment-baseline="central" class="actor actor-box" style="text-anchor: middle; font-size: 16px; font-weight: 400;"><tspan x="429" dy="0">API Gateway</tspan></text></g></g><g><line id="actor94" x1="75" y1="65" x2="75" y2="2690" class="actor-line 200" stroke-width="0.5px" stroke="#999" name="Client"/><g id="root-94"><rect x="0" y="0" fill="#eaeaea" stroke="#666" width="150" height="65" name="Client" rx="3" ry="3" class="actor actor-top"/><text x="75" y="32.5" dominant-baseline="central" alignment-baseline="central" class="actor actor-box" style="text-anchor: middle; font-size: 16px; font-weight: 400;"><tspan x="75" dy="0">Client</tspan></text></g></g><style>#mermaid-svg-25{font-family:"trebuchet ms",verdana,arial,sans-serif;font-size:16px;fill:#ccc;}@keyframes edge-animation-frame{from{stroke-dashoffset:0;}}@keyframes dash{to{stroke-dashoffset:0;}}#mermaid-svg-25 .edge-animation-slow{stroke-dasharray:9,5!important;stroke-dashoffset:900;animation:dash 50s linear infinite;stroke-linecap:round;}#mermaid-svg-25 .edge-animation-fast{stroke-dasharray:9,5!important;stroke-dashoffset:900;animation:dash 20s linear infinite;stroke-linecap:round;}#mermaid-svg-25 .error-icon{fill:#a44141;}#mermaid-svg-25 .error-text{fill:#ddd;stroke:#ddd;}#mermaid-svg-25 .edge-thickness-normal{stroke-width:1px;}#mermaid-svg-25 .edge-thickness-thick{stroke-width:3.5px;}#mermaid-svg-25 .edge-pattern-solid{stroke-dasharray:0;}#mermaid-svg-25 .edge-thickness-invisible{stroke-width:0;fill:none;}#mermaid-svg-25 .edge-pattern-dashed{stroke-dasharray:3;}#mermaid-svg-25 .edge-pattern-dotted{stroke-dasharray:2;}#mermaid-svg-25 .marker{fill:lightgrey;stroke:lightgrey;}#mermaid-svg-25 .marker.cross{stroke:lightgrey;}#mermaid-svg-25 svg{font-family:"trebuchet ms",verdana,arial,sans-serif;font-size:16px;}#mermaid-svg-25 p{margin:0;}#mermaid-svg-25 .actor{stroke:#ccc;fill:#1f2020;}#mermaid-svg-25 text.actor&gt;tspan{fill:lightgrey;stroke:none;}#mermaid-svg-25 .actor-line{stroke:#ccc;}#mermaid-svg-25 .messageLine0{stroke-width:1.5;stroke-dasharray:none;stroke:lightgrey;}#mermaid-svg-25 .messageLine1{stroke-width:1.5;stroke-dasharray:2,2;stroke:lightgrey;}#mermaid-svg-25 #arrowhead path{fill:lightgrey;stroke:lightgrey;}#mermaid-svg-25 .sequenceNumber{fill:black;}#mermaid-svg-25 #sequencenumber{fill:lightgrey;}#mermaid-svg-25 #crosshead path{fill:lightgrey;stroke:lightgrey;}#mermaid-svg-25 .messageText{fill:lightgrey;stroke:none;}#mermaid-svg-25 .labelBox{stroke:#ccc;fill:#1f2020;}#mermaid-svg-25 .labelText,#mermaid-svg-25 .labelText&gt;tspan{fill:lightgrey;stroke:none;}#mermaid-svg-25 .loopText,#mermaid-svg-25 .loopText&gt;tspan{fill:lightgrey;stroke:none;}#mermaid-svg-25 .loopLine{stroke-width:2px;stroke-dasharray:2,2;stroke:#ccc;fill:#ccc;}#mermaid-svg-25 .note{stroke:hsl(180, 0%, 18.3529411765%);fill:hsl(180, 1.5873015873%, 28.3529411765%);}#mermaid-svg-25 .noteText,#mermaid-svg-25 .noteText&gt;tspan{fill:rgb(183.8476190475, 181.5523809523, 181.5523809523);stroke:none;}#mermaid-svg-25 .activation0{fill:hsl(180, 1.5873015873%, 28.3529411765%);stroke:#ccc;}#mermaid-svg-25 .activation1{fill:hsl(180, 1.5873015873%, 28.3529411765%);stroke:#ccc;}#mermaid-svg-25 .activation2{fill:hsl(180, 1.5873015873%, 28.3529411765%);stroke:#ccc;}#mermaid-svg-25 .actorPopupMenu{position:absolute;}#mermaid-svg-25 .actorPopupMenuPanel{position:absolute;fill:#1f2020;box-shadow:0px 8px 16px 0px rgba(0,0,0,0.2);filter:drop-shadow(3px 5px 2px rgb(0 0 0 / 0.4));}#mermaid-svg-25 .actor-man line{stroke:#ccc;fill:#1f2020;}#mermaid-svg-25 .actor-man circle,#mermaid-svg-25 line{stroke:#ccc;fill:#1f2020;stroke-width:2px;}#mermaid-svg-25 :root{--mermaid-font-family:"trebuchet ms",verdana,arial,sans-serif;}</style><g/><defs><symbol id="computer" width="24" height="24"><path transform="scale(.5)" d="M2 2v13h20v-13h-20zm18 11h-16v-9h16v9zm-10.228 6l.466-1h3.524l.467 1h-4.457zm14.228 3h-24l2-6h2.104l-1.33 4h18.45l-1.297-4h2.073l2 6zm-5-10h-14v-7h14v7z"/></symbol></defs><defs><symbol id="database" fill-rule="evenodd" clip-rule="evenodd"><path transform="scale(.5)" d="M12.258.001l.256.004.255.005.253.008.251.01.249.012.247.015.246.016.242.019.241.02.239.023.236.024.233.027.231.028.229.031.225.032.223.034.22.036.217.038.214.04.211.041.208.043.205.045.201.046.198.048.194.05.191.051.187.053.183.054.18.056.175.057.172.059.168.06.163.061.16.063.155.064.15.066.074.033.073.033.071.034.07.034.069.035.068.035.067.035.066.035.064.036.064.036.062.036.06.036.06.037.058.037.058.037.055.038.055.038.053.038.052.038.051.039.05.039.048.039.047.039.045.04.044.04.043.04.041.04.04.041.039.041.037.041.036.041.034.041.033.042.032.042.03.042.029.042.027.042.026.043.024.043.023.043.021.043.02.043.018.044.017.043.015.044.013.044.012.044.011.045.009.044.007.045.006.045.004.045.002.045.001.045v17l-.001.045-.002.045-.004.045-.006.045-.007.045-.009.044-.011.045-.012.044-.013.044-.015.044-.017.043-.018.044-.02.043-.021.043-.023.043-.024.043-.026.043-.027.042-.029.042-.03.042-.032.042-.033.042-.034.041-.036.041-.037.041-.039.041-.04.041-.041.04-.043.04-.044.04-.045.04-.047.039-.048.039-.05.039-.051.039-.052.038-.053.038-.055.038-.055.038-.058.037-.058.037-.06.037-.06.036-.062.036-.064.036-.064.036-.066.035-.067.035-.068.035-.069.035-.07.034-.071.034-.073.033-.074.033-.15.066-.155.064-.16.063-.163.061-.168.06-.172.059-.175.057-.18.056-.183.054-.187.053-.191.051-.194.05-.198.048-.201.046-.205.045-.208.043-.211.041-.214.04-.217.038-.22.036-.223.034-.225.032-.229.031-.231.028-.233.027-.236.024-.239.023-.241.02-.242.019-.246.016-.247.015-.249.012-.251.01-.253.008-.255.005-.256.004-.258.001-.258-.001-.256-.004-.255-.005-.253-.008-.251-.01-.249-.012-.247-.015-.245-.016-.243-.019-.241-.02-.238-.023-.236-.024-.234-.027-.231-.028-.228-.031-.226-.032-.223-.034-.22-.036-.217-.038-.214-.04-.211-.041-.208-.043-.204-.045-.201-.046-.198-.048-.195-.05-.19-.051-.187-.053-.184-.054-.179-.056-.176-.057-.172-.059-.167-.06-.164-.061-.159-.063-.155-.064-.151-.066-.074-.033-.072-.033-.072-.034-.07-.034-.069-.035-.068-.035-.067-.035-.066-.035-.064-.036-.063-.036-.062-.036-.061-.036-.06-.037-.058-.037-.057-.037-.056-.038-.055-.038-.053-.038-.052-.038-.051-.039-.049-.039-.049-.039-.046-.039-.046-.04-.044-.04-.043-.04-.041-.04-.04-.041-.039-.041-.037-.041-.036-.041-.034-.041-.033-.042-.032-.042-.03-.042-.029-.042-.027-.042-.026-.043-.024-.043-.023-.043-.021-.043-.02-.043-.018-.044-.017-.043-.015-.044-.013-.044-.012-.044-.011-.045-.009-.044-.007-.045-.006-.045-.004-.045-.002-.045-.001-.045v-17l.001-.045.002-.045.004-.045.006-.045.007-.045.009-.044.011-.045.012-.044.013-.044.015-.044.017-.043.018-.044.02-.043.021-.043.023-.043.024-.043.026-.043.027-.042.029-.042.03-.042.032-.042.033-.042.034-.041.036-.041.037-.041.039-.041.04-.041.041-.04.043-.04.044-.04.046-.04.046-.039.049-.039.049-.039.051-.039.052-.038.053-.038.055-.038.056-.038.057-.037.058-.037.06-.037.061-.036.062-.036.063-.036.064-.036.066-.035.067-.035.068-.035.069-.035.07-.034.072-.034.072-.033.074-.033.151-.066.155-.064.159-.063.164-.061.167-.06.172-.059.176-.057.179-.056.184-.054.187-.053.19-.051.195-.05.198-.048.201-.046.204-.045.208-.043.211-.041.214-.04.217-.038.22-.036.223-.034.226-.032.228-.031.231-.028.234-.027.236-.024.238-.023.241-.02.243-.019.245-.016.247-.015.249-.012.251-.01.253-.008.255-.005.256-.004.258-.001.258.001zm-9.258 20.499v.01l.001.021.003.021.004.022.005.021.006.022.007.022.009.023.01.022.011.023.012.023.013.023.015.023.016.024.017.023.018.024.019.024.021.024.022.025.023.024.024.025.052.049.056.05.061.051.066.051.07.051.075.051.079.052.084.052.088.052.092.052.097.052.102.051.105.052.11.052.114.051.119.051.123.051.127.05.131.05.135.05.139.048.144.049.147.047.152.047.155.047.16.045.163.045.167.043.171.043.176.041.178.041.183.039.187.039.19.037.194.035.197.035.202.033.204.031.209.03.212.029.216.027.219.025.222.024.226.021.23.02.233.018.236.016.24.015.243.012.246.01.249.008.253.005.256.004.259.001.26-.001.257-.004.254-.005.25-.008.247-.011.244-.012.241-.014.237-.016.233-.018.231-.021.226-.021.224-.024.22-.026.216-.027.212-.028.21-.031.205-.031.202-.034.198-.034.194-.036.191-.037.187-.039.183-.04.179-.04.175-.042.172-.043.168-.044.163-.045.16-.046.155-.046.152-.047.148-.048.143-.049.139-.049.136-.05.131-.05.126-.05.123-.051.118-.052.114-.051.11-.052.106-.052.101-.052.096-.052.092-.052.088-.053.083-.051.079-.052.074-.052.07-.051.065-.051.06-.051.056-.05.051-.05.023-.024.023-.025.021-.024.02-.024.019-.024.018-.024.017-.024.015-.023.014-.024.013-.023.012-.023.01-.023.01-.022.008-.022.006-.022.006-.022.004-.022.004-.021.001-.021.001-.021v-4.127l-.077.055-.08.053-.083.054-.085.053-.087.052-.09.052-.093.051-.095.05-.097.05-.1.049-.102.049-.105.048-.106.047-.109.047-.111.046-.114.045-.115.045-.118.044-.12.043-.122.042-.124.042-.126.041-.128.04-.13.04-.132.038-.134.038-.135.037-.138.037-.139.035-.142.035-.143.034-.144.033-.147.032-.148.031-.15.03-.151.03-.153.029-.154.027-.156.027-.158.026-.159.025-.161.024-.162.023-.163.022-.165.021-.166.02-.167.019-.169.018-.169.017-.171.016-.173.015-.173.014-.175.013-.175.012-.177.011-.178.01-.179.008-.179.008-.181.006-.182.005-.182.004-.184.003-.184.002h-.37l-.184-.002-.184-.003-.182-.004-.182-.005-.181-.006-.179-.008-.179-.008-.178-.01-.176-.011-.176-.012-.175-.013-.173-.014-.172-.015-.171-.016-.17-.017-.169-.018-.167-.019-.166-.02-.165-.021-.163-.022-.162-.023-.161-.024-.159-.025-.157-.026-.156-.027-.155-.027-.153-.029-.151-.03-.15-.03-.148-.031-.146-.032-.145-.033-.143-.034-.141-.035-.14-.035-.137-.037-.136-.037-.134-.038-.132-.038-.13-.04-.128-.04-.126-.041-.124-.042-.122-.042-.12-.044-.117-.043-.116-.045-.113-.045-.112-.046-.109-.047-.106-.047-.105-.048-.102-.049-.1-.049-.097-.05-.095-.05-.093-.052-.09-.051-.087-.052-.085-.053-.083-.054-.08-.054-.077-.054v4.127zm0-5.654v.011l.001.021.003.021.004.021.005.022.006.022.007.022.009.022.01.022.011.023.012.023.013.023.015.024.016.023.017.024.018.024.019.024.021.024.022.024.023.025.024.024.052.05.056.05.061.05.066.051.07.051.075.052.079.051.084.052.088.052.092.052.097.052.102.052.105.052.11.051.114.051.119.052.123.05.127.051.131.05.135.049.139.049.144.048.147.048.152.047.155.046.16.045.163.045.167.044.171.042.176.042.178.04.183.04.187.038.19.037.194.036.197.034.202.033.204.032.209.03.212.028.216.027.219.025.222.024.226.022.23.02.233.018.236.016.24.014.243.012.246.01.249.008.253.006.256.003.259.001.26-.001.257-.003.254-.006.25-.008.247-.01.244-.012.241-.015.237-.016.233-.018.231-.02.226-.022.224-.024.22-.025.216-.027.212-.029.21-.03.205-.032.202-.033.198-.035.194-.036.191-.037.187-.039.183-.039.179-.041.175-.042.172-.043.168-.044.163-.045.16-.045.155-.047.152-.047.148-.048.143-.048.139-.05.136-.049.131-.05.126-.051.123-.051.118-.051.114-.052.11-.052.106-.052.101-.052.096-.052.092-.052.088-.052.083-.052.079-.052.074-.051.07-.052.065-.051.06-.05.056-.051.051-.049.023-.025.023-.024.021-.025.02-.024.019-.024.018-.024.017-.024.015-.023.014-.023.013-.024.012-.022.01-.023.01-.023.008-.022.006-.022.006-.022.004-.021.004-.022.001-.021.001-.021v-4.139l-.077.054-.08.054-.083.054-.085.052-.087.053-.09.051-.093.051-.095.051-.097.05-.1.049-.102.049-.105.048-.106.047-.109.047-.111.046-.114.045-.115.044-.118.044-.12.044-.122.042-.124.042-.126.041-.128.04-.13.039-.132.039-.134.038-.135.037-.138.036-.139.036-.142.035-.143.033-.144.033-.147.033-.148.031-.15.03-.151.03-.153.028-.154.028-.156.027-.158.026-.159.025-.161.024-.162.023-.163.022-.165.021-.166.02-.167.019-.169.018-.169.017-.171.016-.173.015-.173.014-.175.013-.175.012-.177.011-.178.009-.179.009-.179.007-.181.007-.182.005-.182.004-.184.003-.184.002h-.37l-.184-.002-.184-.003-.182-.004-.182-.005-.181-.007-.179-.007-.179-.009-.178-.009-.176-.011-.176-.012-.175-.013-.173-.014-.172-.015-.171-.016-.17-.017-.169-.018-.167-.019-.166-.02-.165-.021-.163-.022-.162-.023-.161-.024-.159-.025-.157-.026-.156-.027-.155-.028-.153-.028-.151-.03-.15-.03-.148-.031-.146-.033-.145-.033-.143-.033-.141-.035-.14-.036-.137-.036-.136-.037-.134-.038-.132-.039-.13-.039-.128-.04-.126-.041-.124-.042-.122-.043-.12-.043-.117-.044-.116-.044-.113-.046-.112-.046-.109-.046-.106-.047-.105-.048-.102-.049-.1-.049-.097-.05-.095-.051-.093-.051-.09-.051-.087-.053-.085-.052-.083-.054-.08-.054-.077-.054v4.139zm0-5.666v.011l.001.02.003.022.004.021.005.022.006.021.007.022.009.023.01.022.011.023.012.023.013.023.015.023.016.024.017.024.018.023.019.024.021.025.022.024.023.024.024.025.052.05.056.05.061.05.066.051.07.051.075.052.079.051.084.052.088.052.092.052.097.052.102.052.105.051.11.052.114.051.119.051.123.051.127.05.131.05.135.05.139.049.144.048.147.048.152.047.155.046.16.045.163.045.167.043.171.043.176.042.178.04.183.04.187.038.19.037.194.036.197.034.202.033.204.032.209.03.212.028.216.027.219.025.222.024.226.021.23.02.233.018.236.017.24.014.243.012.246.01.249.008.253.006.256.003.259.001.26-.001.257-.003.254-.006.25-.008.247-.01.244-.013.241-.014.237-.016.233-.018.231-.02.226-.022.224-.024.22-.025.216-.027.212-.029.21-.03.205-.032.202-.033.198-.035.194-.036.191-.037.187-.039.183-.039.179-.041.175-.042.172-.043.168-.044.163-.045.16-.045.155-.047.152-.047.148-.048.143-.049.139-.049.136-.049.131-.051.126-.05.123-.051.118-.052.114-.051.11-.052.106-.052.101-.052.096-.052.092-.052.088-.052.083-.052.079-.052.074-.052.07-.051.065-.051.06-.051.056-.05.051-.049.023-.025.023-.025.021-.024.02-.024.019-.024.018-.024.017-.024.015-.023.014-.024.013-.023.012-.023.01-.022.01-.023.008-.022.006-.022.006-.022.004-.022.004-.021.001-.021.001-.021v-4.153l-.077.054-.08.054-.083.053-.085.053-.087.053-.09.051-.093.051-.095.051-.097.05-.1.049-.102.048-.105.048-.106.048-.109.046-.111.046-.114.046-.115.044-.118.044-.12.043-.122.043-.124.042-.126.041-.128.04-.13.039-.132.039-.134.038-.135.037-.138.036-.139.036-.142.034-.143.034-.144.033-.147.032-.148.032-.15.03-.151.03-.153.028-.154.028-.156.027-.158.026-.159.024-.161.024-.162.023-.163.023-.165.021-.166.02-.167.019-.169.018-.169.017-.171.016-.173.015-.173.014-.175.013-.175.012-.177.01-.178.01-.179.009-.179.007-.181.006-.182.006-.182.004-.184.003-.184.001-.185.001-.185-.001-.184-.001-.184-.003-.182-.004-.182-.006-.181-.006-.179-.007-.179-.009-.178-.01-.176-.01-.176-.012-.175-.013-.173-.014-.172-.015-.171-.016-.17-.017-.169-.018-.167-.019-.166-.02-.165-.021-.163-.023-.162-.023-.161-.024-.159-.024-.157-.026-.156-.027-.155-.028-.153-.028-.151-.03-.15-.03-.148-.032-.146-.032-.145-.033-.143-.034-.141-.034-.14-.036-.137-.036-.136-.037-.134-.038-.132-.039-.13-.039-.128-.041-.126-.041-.124-.041-.122-.043-.12-.043-.117-.044-.116-.044-.113-.046-.112-.046-.109-.046-.106-.048-.105-.048-.102-.048-.1-.05-.097-.049-.095-.051-.093-.051-.09-.052-.087-.052-.085-.053-.083-.053-.08-.054-.077-.054v4.153zm8.74-8.179l-.257.004-.254.005-.25.008-.247.011-.244.012-.241.014-.237.016-.233.018-.231.021-.226.022-.224.023-.22.026-.216.027-.212.028-.21.031-.205.032-.202.033-.198.034-.194.036-.191.038-.187.038-.183.04-.179.041-.175.042-.172.043-.168.043-.163.045-.16.046-.155.046-.152.048-.148.048-.143.048-.139.049-.136.05-.131.05-.126.051-.123.051-.118.051-.114.052-.11.052-.106.052-.101.052-.096.052-.092.052-.088.052-.083.052-.079.052-.074.051-.07.052-.065.051-.06.05-.056.05-.051.05-.023.025-.023.024-.021.024-.02.025-.019.024-.018.024-.017.023-.015.024-.014.023-.013.023-.012.023-.01.023-.01.022-.008.022-.006.023-.006.021-.004.022-.004.021-.001.021-.001.021.001.021.001.021.004.021.004.022.006.021.006.023.008.022.01.022.01.023.012.023.013.023.014.023.015.024.017.023.018.024.019.024.02.025.021.024.023.024.023.025.051.05.056.05.06.05.065.051.07.052.074.051.079.052.083.052.088.052.092.052.096.052.101.052.106.052.11.052.114.052.118.051.123.051.126.051.131.05.136.05.139.049.143.048.148.048.152.048.155.046.16.046.163.045.168.043.172.043.175.042.179.041.183.04.187.038.191.038.194.036.198.034.202.033.205.032.21.031.212.028.216.027.22.026.224.023.226.022.231.021.233.018.237.016.241.014.244.012.247.011.25.008.254.005.257.004.26.001.26-.001.257-.004.254-.005.25-.008.247-.011.244-.012.241-.014.237-.016.233-.018.231-.021.226-.022.224-.023.22-.026.216-.027.212-.028.21-.031.205-.032.202-.033.198-.034.194-.036.191-.038.187-.038.183-.04.179-.041.175-.042.172-.043.168-.043.163-.045.16-.046.155-.046.152-.048.148-.048.143-.048.139-.049.136-.05.131-.05.126-.051.123-.051.118-.051.114-.052.11-.052.106-.052.101-.052.096-.052.092-.052.088-.052.083-.052.079-.052.074-.051.07-.052.065-.051.06-.05.056-.05.051-.05.023-.025.023-.024.021-.024.02-.025.019-.024.018-.024.017-.023.015-.024.014-.023.013-.023.012-.023.01-.023.01-.022.008-.022.006-.023.006-.021.004-.022.004-.021.001-.021.001-.021-.001-.021-.001-.021-.004-.021-.004-.022-.006-.021-.006-.023-.008-.022-.01-.022-.01-.023-.012-.023-.013-.023-.014-.023-.015-.024-.017-.023-.018-.024-.019-.024-.02-.025-.021-.024-.023-.024-.023-.025-.051-.05-.056-.05-.06-.05-.065-.051-.07-.052-.074-.051-.079-.052-.083-.052-.088-.052-.092-.052-.096-.052-.101-.052-.106-.052-.11-.052-.114-.052-.118-.051-.123-.051-.126-.051-.131-.05-.136-.05-.139-.049-.143-.048-.148-.048-.152-.048-.155-.046-.16-.046-.163-.045-.168-.043-.172-.043-.175-.042-.179-.041-.183-.04-.187-.038-.191-.038-.194-.036-.198-.034-.202-.033-.205-.032-.21-.031-.212-.028-.216-.027-.22-.026-.224-.023-.226-.022-.231-.021-.233-.018-.237-.016-.241-.014-.244-.012-.247-.011-.25-.008-.254-.005-.257-.004-.26-.001-.26.001z"/></symbol></defs><defs><symbol id="clock" width="24" height="24"><path transform="scale(.5)" d="M12 2c5.514 0 10 4.486 10 10s-4.486 10-10 10-10-4.486-10-10 4.486-10 10-10zm0-2c-6.627 0-12 5.373-12 12s5.373 12 12 12 12-5.373 12-12-5.373-12-12-12zm5.848 12.459c.202.038.202.333.001.372-1.907.361-6.045 1.111-6.547 1.111-.719 0-1.301-.582-1.301-1.301 0-.512.77-5.447 1.125-7.445.034-.192.312-.181.343.014l.985 6.238 5.394 1.011z"/></symbol></defs><defs><marker id="arrowhead" refX="7.9" refY="5" markerUnits="userSpaceOnUse" markerWidth="12" markerHeight="12" orient="auto-start-reverse"><path d="M -1 0 L 10 5 L 0 10 z"/></marker></defs><defs><marker id="crosshead" markerWidth="15" markerHeight="8" orient="auto" refX="4" refY="4.5"><path fill="none" stroke="#000000" stroke-width="1pt" d="M 1,2 L 6,7 M 6,2 L 1,7" style="stroke-dasharray: 0, 0;"/></marker></defs><defs><marker id="filled-head" refX="15.5" refY="7" markerWidth="20" markerHeight="28" orient="auto"><path d="M 18,7 L9,13 L14,7 L9,1 Z"/></marker></defs><defs><marker id="sequencenumber" refX="15" refY="15" markerWidth="60" markerHeight="40" orient="auto"><circle cx="15" cy="15" r="6"/></marker></defs><g><line x1="1942" y1="2420" x2="2808" y2="2420" class="loopLine"/><line x1="2808" y1="2420" x2="2808" y2="2660" class="loopLine"/><line x1="1942" y1="2660" x2="2808" y2="2660" class="loopLine"/><line x1="1942" y1="2420" x2="1942" y2="2660" class="loopLine"/><line x1="1942" y1="2520" x2="2808" y2="2520" class="loopLine" style="stroke-dasharray: 3, 3;"/><polygon points="1942,2420 1992,2420 1992,2433 1983.6,2440 1942,2440" class="labelBox"/><text x="1967" y="2433" text-anchor="middle" dominant-baseline="middle" alignment-baseline="middle" class="labelText" style="font-size: 16px; font-weight: 400;">alt</text><text x="2400" y="2438" text-anchor="middle" class="loopText" style="font-size: 16px; font-weight: 400;"><tspan x="2400">[Grace Period Active]</tspan></text><text x="2375" y="2538" text-anchor="middle" class="loopText" style="font-size: 16px; font-weight: 400;">[Hard Deletion]</text></g><g><line x1="913.5" y1="2125" x2="2818" y2="2125" class="loopLine"/><line x1="2818" y1="2125" x2="2818" y2="2670" class="loopLine"/><line x1="913.5" y1="2670" x2="2818" y2="2670" class="loopLine"/><line x1="913.5" y1="2125" x2="913.5" y2="2670" class="loopLine"/><polygon points="913.5,2125 963.5,2125 963.5,2138 955.1,2145 913.5,2145" class="labelBox"/><text x="939" y="2138" text-anchor="middle" dominant-baseline="middle" alignment-baseline="middle" class="labelText" style="font-size: 16px; font-weight: 400;">loop</text><text x="1890.75" y="2143" text-anchor="middle" class="loopText" style="font-size: 16px; font-weight: 400;"><tspan x="1890.75">[Each Document]</tspan></text></g><text x="251" y="80" text-anchor="middle" dominant-baseline="middle" alignment-baseline="middle" class="messageText" dy="1em" style="font-size: 16px; font-weight: 400;">POST /documents + API Key + HMAC</text><line x1="76" y1="115" x2="425" y2="115" class="messageLine0" stroke-width="2" stroke="none" marker-end="url(#arrowhead)" style="fill: none;"/><text x="573" y="130" text-anchor="middle" dominant-baseline="middle" alignment-baseline="middle" class="messageText" dy="1em" style="font-size: 16px; font-weight: 400;">Validate API Key &amp; Signature</text><line x1="430" y1="165" x2="716" y2="165" class="messageLine0" stroke-width="2" stroke="none" marker-end="url(#arrowhead)" style="fill: none;"/><text x="1435" y="180" text-anchor="middle" dominant-baseline="middle" alignment-baseline="middle" class="messageText" dy="1em" style="font-size: 16px; font-weight: 400;">Check Rate Limit</text><line x1="721" y1="215" x2="2149" y2="215" class="messageLine0" stroke-width="2" stroke="none" marker-end="url(#arrowhead)" style="fill: none;"/><text x="1438" y="230" text-anchor="middle" dominant-baseline="middle" alignment-baseline="middle" class="messageText" dy="1em" style="font-size: 16px; font-weight: 400;">Rate Limit OK</text><line x1="2152" y1="265" x2="724" y2="265" class="messageLine1" stroke-width="2" stroke="none" marker-end="url(#arrowhead)" style="stroke-dasharray: 3, 3; fill: none;"/><text x="576" y="280" text-anchor="middle" dominant-baseline="middle" alignment-baseline="middle" class="messageText" dy="1em" style="font-size: 16px; font-weight: 400;">Auth OK + Institution Context</text><line x1="719" y1="315" x2="433" y2="315" class="messageLine1" stroke-width="2" stroke="none" marker-end="url(#arrowhead)" style="stroke-dasharray: 3, 3; fill: none;"/><text x="675" y="330" text-anchor="middle" dominant-baseline="middle" alignment-baseline="middle" class="messageText" dy="1em" style="font-size: 16px; font-weight: 400;">Forward Request + Context</text><line x1="430" y1="365" x2="920.5" y2="365" class="messageLine0" stroke-width="2" stroke="none" marker-end="url(#arrowhead)" style="fill: none;"/><text x="1437" y="380" text-anchor="middle" dominant-baseline="middle" alignment-baseline="middle" class="messageText" dy="1em" style="font-size: 16px; font-weight: 400;">Check Institution Quota</text><line x1="925.5" y1="415" x2="1949" y2="415" class="messageLine0" stroke-width="2" stroke="none" marker-end="url(#arrowhead)" style="fill: none;"/><text x="1440" y="430" text-anchor="middle" dominant-baseline="middle" alignment-baseline="middle" class="messageText" dy="1em" style="font-size: 16px; font-weight: 400;">Quota OK</text><line x1="1952" y1="465" x2="928.5" y2="465" class="messageLine1" stroke-width="2" stroke="none" marker-end="url(#arrowhead)" style="stroke-dasharray: 3, 3; fill: none;"/><text x="926" y="480" text-anchor="middle" dominant-baseline="middle" alignment-baseline="middle" class="messageText" dy="1em" style="font-size: 16px; font-weight: 400;">Generate SHA-256 Hash</text><path d="M 925.5,515 C 985.5,505 985.5,545 925.5,535" class="messageLine0" stroke-width="2" stroke="none" marker-end="url(#arrowhead)" style="fill: none;"/><text x="926" y="560" text-anchor="middle" dominant-baseline="middle" alignment-baseline="middle" class="messageText" dy="1em" style="font-size: 16px; font-weight: 400;">Generate Fingerprint ID (with prefix)</text><path d="M 925.5,595 C 985.5,585 985.5,625 925.5,615" class="messageLine0" stroke-width="2" stroke="none" marker-end="url(#arrowhead)" style="fill: none;"/><text x="926" y="640" text-anchor="middle" dominant-baseline="middle" alignment-baseline="middle" class="messageText" dy="1em" style="font-size: 16px; font-weight: 400;">Apply 3-Month Default Expiry</text><path d="M 925.5,675 C 985.5,665 985.5,705 925.5,695" class="messageLine0" stroke-width="2" stroke="none" marker-end="url(#arrowhead)" style="fill: none;"/><text x="1437" y="720" text-anchor="middle" dominant-baseline="middle" alignment-baseline="middle" class="messageText" dy="1em" style="font-size: 16px; font-weight: 400;">Insert Document Record</text><line x1="925.5" y1="755" x2="1949" y2="755" class="messageLine0" stroke-width="2" stroke="none" marker-end="url(#arrowhead)" style="fill: none;"/><text x="1440" y="770" text-anchor="middle" dominant-baseline="middle" alignment-baseline="middle" class="messageText" dy="1em" style="font-size: 16px; font-weight: 400;">Document Created</text><line x1="1952" y1="805" x2="928.5" y2="805" class="messageLine1" stroke-width="2" stroke="none" marker-end="url(#arrowhead)" style="stroke-dasharray: 3, 3; fill: none;"/><text x="1537" y="820" text-anchor="middle" dominant-baseline="middle" alignment-baseline="middle" class="messageText" dy="1em" style="font-size: 16px; font-weight: 400;">Cache Document Metadata</text><line x1="925.5" y1="855" x2="2149" y2="855" class="messageLine0" stroke-width="2" stroke="none" marker-end="url(#arrowhead)" style="fill: none;"/><text x="678" y="870" text-anchor="middle" dominant-baseline="middle" alignment-baseline="middle" class="messageText" dy="1em" style="font-size: 16px; font-weight: 400;">201 Created + Fingerprint</text><line x1="923.5" y1="905" x2="433" y2="905" class="messageLine1" stroke-width="2" stroke="none" marker-end="url(#arrowhead)" style="stroke-dasharray: 3, 3; fill: none;"/><text x="254" y="920" text-anchor="middle" dominant-baseline="middle" alignment-baseline="middle" class="messageText" dy="1em" style="font-size: 16px; font-weight: 400;">Document Registered + QR Code</text><line x1="428" y1="955" x2="79" y2="955" class="messageLine1" stroke-width="2" stroke="none" marker-end="url(#arrowhead)" style="stroke-dasharray: 3, 3; fill: none;"/><text x="1637" y="970" text-anchor="middle" dominant-baseline="middle" alignment-baseline="middle" class="messageText" dy="1em" style="font-size: 16px; font-weight: 400;">Publish Document Created Event</text><line x1="925.5" y1="1005" x2="2349" y2="1005" class="messageLine0" stroke-width="2" stroke="none" marker-end="url(#arrowhead)" style="fill: none;"/><text x="2457" y="1020" text-anchor="middle" dominant-baseline="middle" alignment-baseline="middle" class="messageText" dy="1em" style="font-size: 16px; font-weight: 400;">Async Processing</text><line x1="2354" y1="1055" x2="2559" y2="1055" class="messageLine0" stroke-width="2" stroke="none" marker-end="url(#arrowhead)" style="fill: none;"/><text x="2051" y="1070" text-anchor="middle" dominant-baseline="middle" alignment-baseline="middle" class="messageText" dy="1em" style="font-size: 16px; font-weight: 400;">Trigger Institution Webhook</text><line x1="2562" y1="1105" x2="1540.5" y2="1105" class="messageLine0" stroke-width="2" stroke="none" marker-end="url(#arrowhead)" style="fill: none;"/><text x="807" y="1120" text-anchor="middle" dominant-baseline="middle" alignment-baseline="middle" class="messageText" dy="1em" style="font-size: 16px; font-weight: 400;">POST to Institution URL</text><line x1="1535.5" y1="1155" x2="79" y2="1155" class="messageLine0" stroke-width="2" stroke="none" marker-end="url(#arrowhead)" style="fill: none;"/><text x="2152" y="1170" text-anchor="middle" dominant-baseline="middle" alignment-baseline="middle" class="messageText" dy="1em" style="font-size: 16px; font-weight: 400;">Log Action</text><line x1="2562" y1="1205" x2="1742" y2="1205" class="messageLine0" stroke-width="2" stroke="none" marker-end="url(#arrowhead)" style="fill: none;"/><text x="1844" y="1220" text-anchor="middle" dominant-baseline="middle" alignment-baseline="middle" class="messageText" dy="1em" style="font-size: 16px; font-weight: 400;">Insert Audit Record</text><line x1="1739" y1="1255" x2="1949" y2="1255" class="messageLine0" stroke-width="2" stroke="none" marker-end="url(#arrowhead)" style="fill: none;"/><text x="251" y="1270" text-anchor="middle" dominant-baseline="middle" alignment-baseline="middle" class="messageText" dy="1em" style="font-size: 16px; font-weight: 400;">GET /verify/{fingerprint}</text><line x1="76" y1="1305" x2="425" y2="1305" class="messageLine0" stroke-width="2" stroke="none" marker-end="url(#arrowhead)" style="fill: none;"/><text x="1290" y="1320" text-anchor="middle" dominant-baseline="middle" alignment-baseline="middle" class="messageText" dy="1em" style="font-size: 16px; font-weight: 400;">Check Cache</text><line x1="430" y1="1355" x2="2149" y2="1355" class="messageLine0" stroke-width="2" stroke="none" marker-end="url(#arrowhead)" style="fill: none;"/><text x="1293" y="1370" text-anchor="middle" dominant-baseline="middle" alignment-baseline="middle" class="messageText" dy="1em" style="font-size: 16px; font-weight: 400;">Cache Miss</text><line x1="2152" y1="1405" x2="433" y2="1405" class="messageLine1" stroke-width="2" stroke="none" marker-end="url(#arrowhead)" style="stroke-dasharray: 3, 3; fill: none;"/><text x="675" y="1420" text-anchor="middle" dominant-baseline="middle" alignment-baseline="middle" class="messageText" dy="1em" style="font-size: 16px; font-weight: 400;">Forward Request</text><line x1="430" y1="1455" x2="920.5" y2="1455" class="messageLine0" stroke-width="2" stroke="none" marker-end="url(#arrowhead)" style="fill: none;"/><text x="1437" y="1470" text-anchor="middle" dominant-baseline="middle" alignment-baseline="middle" class="messageText" dy="1em" style="font-size: 16px; font-weight: 400;">Query Document</text><line x1="925.5" y1="1505" x2="1949" y2="1505" class="messageLine0" stroke-width="2" stroke="none" marker-end="url(#arrowhead)" style="fill: none;"/><text x="1440" y="1520" text-anchor="middle" dominant-baseline="middle" alignment-baseline="middle" class="messageText" dy="1em" style="font-size: 16px; font-weight: 400;">Document Record</text><line x1="1952" y1="1555" x2="928.5" y2="1555" class="messageLine1" stroke-width="2" stroke="none" marker-end="url(#arrowhead)" style="stroke-dasharray: 3, 3; fill: none;"/><text x="926" y="1570" text-anchor="middle" dominant-baseline="middle" alignment-baseline="middle" class="messageText" dy="1em" style="font-size: 16px; font-weight: 400;">Check Expiry Status</text><path d="M 925.5,1605 C 985.5,1595 985.5,1635 925.5,1625" class="messageLine0" stroke-width="2" stroke="none" marker-end="url(#arrowhead)" style="fill: none;"/><text x="926" y="1650" text-anchor="middle" dominant-baseline="middle" alignment-baseline="middle" class="messageText" dy="1em" style="font-size: 16px; font-weight: 400;">Calculate Days Remaining</text><path d="M 925.5,1685 C 985.5,1675 985.5,1715 925.5,1705" class="messageLine0" stroke-width="2" stroke="none" marker-end="url(#arrowhead)" style="fill: none;"/><text x="678" y="1730" text-anchor="middle" dominant-baseline="middle" alignment-baseline="middle" class="messageText" dy="1em" style="font-size: 16px; font-weight: 400;">Verification Result</text><line x1="923.5" y1="1765" x2="433" y2="1765" class="messageLine1" stroke-width="2" stroke="none" marker-end="url(#arrowhead)" style="stroke-dasharray: 3, 3; fill: none;"/><text x="254" y="1780" text-anchor="middle" dominant-baseline="middle" alignment-baseline="middle" class="messageText" dy="1em" style="font-size: 16px; font-weight: 400;">200 OK + Document Details</text><line x1="428" y1="1815" x2="79" y2="1815" class="messageLine1" stroke-width="2" stroke="none" marker-end="url(#arrowhead)" style="stroke-dasharray: 3, 3; fill: none;"/><text x="1637" y="1830" text-anchor="middle" dominant-baseline="middle" alignment-baseline="middle" class="messageText" dy="1em" style="font-size: 16px; font-weight: 400;">Publish Verification Event</text><line x1="925.5" y1="1865" x2="2349" y2="1865" class="messageLine0" stroke-width="2" stroke="none" marker-end="url(#arrowhead)" style="fill: none;"/><text x="2457" y="1880" text-anchor="middle" dominant-baseline="middle" alignment-baseline="middle" class="messageText" dy="1em" style="font-size: 16px; font-weight: 400;">Async Processing</text><line x1="2354" y1="1915" x2="2559" y2="1915" class="messageLine0" stroke-width="2" stroke="none" marker-end="url(#arrowhead)" style="fill: none;"/><text x="2260" y="1930" text-anchor="middle" dominant-baseline="middle" alignment-baseline="middle" class="messageText" dy="1em" style="font-size: 16px; font-weight: 400;">Insert Verification Log</text><line x1="2562" y1="1965" x2="1957" y2="1965" class="messageLine0" stroke-width="2" stroke="none" marker-end="url(#arrowhead)" style="fill: none;"/><text x="2360" y="1980" text-anchor="middle" dominant-baseline="middle" alignment-baseline="middle" class="messageText" dy="1em" style="font-size: 16px; font-weight: 400;">Update Cache</text><line x1="2562" y1="2015" x2="2157" y2="2015" class="messageLine0" stroke-width="2" stroke="none" marker-end="url(#arrowhead)" style="fill: none;"/><text x="1643" y="2030" text-anchor="middle" dominant-baseline="middle" alignment-baseline="middle" class="messageText" dy="1em" style="font-size: 16px; font-weight: 400;">Query Expiring Documents (hourly)</text><line x1="1336" y1="2065" x2="1949" y2="2065" class="messageLine0" stroke-width="2" stroke="none" marker-end="url(#arrowhead)" style="fill: none;"/><text x="1646" y="2080" text-anchor="middle" dominant-baseline="middle" alignment-baseline="middle" class="messageText" dy="1em" style="font-size: 16px; font-weight: 400;">List of Expiring Docs</text><line x1="1952" y1="2115" x2="1339" y2="2115" class="messageLine1" stroke-width="2" stroke="none" marker-end="url(#arrowhead)" style="stroke-dasharray: 3, 3; fill: none;"/><text x="1131" y="2175" text-anchor="middle" dominant-baseline="middle" alignment-baseline="middle" class="messageText" dy="1em" style="font-size: 16px; font-weight: 400;">Update Status to Expired</text><line x1="1334" y1="2210" x2="928.5" y2="2210" class="messageLine0" stroke-width="2" stroke="none" marker-end="url(#arrowhead)" style="fill: none;"/><text x="1843" y="2225" text-anchor="middle" dominant-baseline="middle" alignment-baseline="middle" class="messageText" dy="1em" style="font-size: 16px; font-weight: 400;">Publish Expiry Event</text><line x1="1336" y1="2260" x2="2349" y2="2260" class="messageLine0" stroke-width="2" stroke="none" marker-end="url(#arrowhead)" style="fill: none;"/><text x="2457" y="2275" text-anchor="middle" dominant-baseline="middle" alignment-baseline="middle" class="messageText" dy="1em" style="font-size: 16px; font-weight: 400;">Process Expiry</text><line x1="2354" y1="2310" x2="2559" y2="2310" class="messageLine0" stroke-width="2" stroke="none" marker-end="url(#arrowhead)" style="fill: none;"/><text x="2051" y="2325" text-anchor="middle" dominant-baseline="middle" alignment-baseline="middle" class="messageText" dy="1em" style="font-size: 16px; font-weight: 400;">Send Expiry Notification</text><line x1="2562" y1="2360" x2="1540.5" y2="2360" class="messageLine0" stroke-width="2" stroke="none" marker-end="url(#arrowhead)" style="fill: none;"/><text x="2152" y="2375" text-anchor="middle" dominant-baseline="middle" alignment-baseline="middle" class="messageText" dy="1em" style="font-size: 16px; font-weight: 400;">Log Expiry Event</text><line x1="2562" y1="2410" x2="1742" y2="2410" class="messageLine0" stroke-width="2" stroke="none" marker-end="url(#arrowhead)" style="fill: none;"/><text x="2260" y="2470" text-anchor="middle" dominant-baseline="middle" alignment-baseline="middle" class="messageText" dy="1em" style="font-size: 16px; font-weight: 400;">Update Grace Period Info</text><line x1="2562" y1="2505" x2="1957" y2="2505" class="messageLine0" stroke-width="2" stroke="none" marker-end="url(#arrowhead)" style="fill: none;"/><text x="2260" y="2565" text-anchor="middle" dominant-baseline="middle" alignment-baseline="middle" class="messageText" dy="1em" style="font-size: 16px; font-weight: 400;">Archive Document</text><line x1="2562" y1="2600" x2="1957" y2="2600" class="messageLine0" stroke-width="2" stroke="none" marker-end="url(#arrowhead)" style="fill: none;"/><text x="2679" y="2615" text-anchor="middle" dominant-baseline="middle" alignment-baseline="middle" class="messageText" dy="1em" style="font-size: 16px; font-weight: 400;">Move to Cold Storage</text><line x1="2564" y1="2650" x2="2793" y2="2650" class="messageLine0" stroke-width="2" stroke="none" marker-end="url(#arrowhead)" style="fill: none;"/></svg>